<?xml version="1.0" standalone="no"?><!DOCTYPE svg PUBLIC "-//W3C//DTD SVG 1.1//EN" "http://www.w3.org/Graphics/SVG/1.1/DTD/svg11.dtd"><svg t="1746695711974" class="icon" viewBox="0 0 1280 1024" version="1.1" xmlns="http://www.w3.org/2000/svg" p-id="3903" xmlns:xlink="http://www.w3.org/1999/xlink" width="101.25" height="81"><path d="M432 576h-96c-17.68 0-32 14.32-32 32v384c0 17.68 14.32 32 32 32h96c17.68 0 32-14.32 32-32V608c0-17.68-14.32-32-32-32zM176 768H80c-17.68 0-32 14.32-32 32v192c0 17.68 14.32 32 32 32h96c17.68 0 32-14.32 32-32v-192c0-17.68-14.32-32-32-32z" p-id="3904"></path></svg>